<svg width="262" height="48" viewBox="0 0 262 48" fill="none" xmlns="http://www.w3.org/2000/svg">
<g clip-path="url(#clip0_1_2)">
<rect width="262" height="48"/>
<path d="M67.992 6.296H88.584V10.76H72.648V21.848H86.616V26.264H72.648V41H67.992V6.296ZM94.3099 21.128H98.7739V41H94.3099V21.128ZM93.9739 13.928C93.9739 13.224 94.2459 12.632 94.7899 12.152C95.3659 11.672 95.9899 11.432 96.6619 11.432C97.3339 11.432 97.9259 11.672 98.4379 12.152C98.9819 12.632 99.2539 13.224 99.2539 13.928C99.2539 14.664 98.9819 15.272 98.4379 15.752C97.9259 16.2 97.3339 16.424 96.6619 16.424C95.9899 16.424 95.3659 16.184 94.7899 15.704C94.2459 15.224 93.9739 14.632 93.9739 13.928ZM110.481 21.128L110.865 25.976L110.673 25.208C111.313 23.736 112.353 22.568 113.793 21.704C115.233 20.808 116.897 20.36 118.785 20.36C120.673 20.36 122.209 20.92 123.393 22.04C124.609 23.128 125.233 24.552 125.265 26.312V41H120.753V27.896C120.721 26.808 120.401 25.928 119.793 25.256C119.217 24.552 118.305 24.2 117.057 24.2C115.905 24.2 114.865 24.52 113.937 25.16C113.009 25.8 112.273 26.68 111.729 27.8C111.217 28.92 110.961 30.216 110.961 31.688V41H106.497V21.128H110.481ZM141.285 41.48C139.429 41.48 137.733 41.08 136.197 40.28C134.693 39.48 133.493 38.312 132.597 36.776C131.733 35.208 131.301 33.304 131.301 31.064C131.301 28.856 131.765 26.952 132.693 25.352C133.621 23.72 134.853 22.472 136.389 21.608C137.957 20.744 139.669 20.312 141.525 20.312C143.381 20.312 144.949 20.744 146.229 21.608C147.509 22.44 148.485 23.432 149.157 24.584L148.869 25.352L149.301 21.128H153.429V41H148.965V35.816L149.445 36.968C149.317 37.288 149.029 37.704 148.581 38.216C148.165 38.696 147.589 39.192 146.853 39.704C146.149 40.216 145.333 40.648 144.405 41C143.477 41.32 142.437 41.48 141.285 41.48ZM142.485 37.784C143.605 37.784 144.613 37.576 145.509 37.16C146.405 36.744 147.141 36.168 147.717 35.432C148.325 34.664 148.741 33.752 148.965 32.696V28.808C148.709 27.848 148.261 27.016 147.621 26.312C146.981 25.576 146.213 25.016 145.317 24.632C144.421 24.216 143.429 24.008 142.341 24.008C141.157 24.008 140.069 24.296 139.077 24.872C138.085 25.448 137.285 26.248 136.677 27.272C136.101 28.296 135.813 29.496 135.813 30.872C135.813 32.152 136.117 33.32 136.725 34.376C137.333 35.432 138.149 36.264 139.173 36.872C140.197 37.48 141.301 37.784 142.485 37.784ZM165.138 21.128L165.522 25.976L165.33 25.208C165.97 23.736 167.01 22.568 168.45 21.704C169.89 20.808 171.554 20.36 173.442 20.36C175.33 20.36 176.866 20.92 178.05 22.04C179.266 23.128 179.89 24.552 179.922 26.312V41H175.41V27.896C175.378 26.808 175.058 25.928 174.45 25.256C173.874 24.552 172.962 24.2 171.714 24.2C170.562 24.2 169.522 24.52 168.594 25.16C167.666 25.8 166.93 26.68 166.386 27.8C165.874 28.92 165.618 30.216 165.618 31.688V41H161.154V21.128H165.138ZM206.741 12.488C205.557 11.88 204.261 11.352 202.853 10.904C201.445 10.456 200.069 10.232 198.725 10.232C196.869 10.232 195.381 10.664 194.261 11.528C193.173 12.392 192.629 13.544 192.629 14.984C192.629 16.072 192.981 17 193.685 17.768C194.389 18.504 195.317 19.144 196.469 19.688C197.621 20.232 198.821 20.744 200.069 21.224C201.157 21.64 202.229 22.104 203.285 22.616C204.341 23.128 205.285 23.768 206.117 24.536C206.981 25.304 207.653 26.248 208.133 27.368C208.645 28.488 208.901 29.88 208.901 31.544C208.901 33.368 208.437 35.032 207.509 36.536C206.613 38.04 205.317 39.224 203.621 40.088C201.925 40.952 199.909 41.384 197.573 41.384C196.037 41.384 194.565 41.208 193.157 40.856C191.781 40.504 190.501 40.056 189.317 39.512C188.133 38.936 187.077 38.344 186.149 37.736L188.213 34.088C188.981 34.632 189.861 35.16 190.853 35.672C191.845 36.152 192.885 36.552 193.973 36.872C195.061 37.16 196.117 37.304 197.141 37.304C198.229 37.304 199.301 37.112 200.357 36.728C201.445 36.312 202.341 35.688 203.045 34.856C203.749 34.024 204.101 32.92 204.101 31.544C204.101 30.36 203.781 29.384 203.141 28.616C202.533 27.816 201.717 27.144 200.693 26.6C199.669 26.024 198.581 25.512 197.429 25.064C196.341 24.648 195.237 24.2 194.117 23.72C192.997 23.208 191.957 22.6 190.997 21.896C190.037 21.16 189.269 20.264 188.693 19.208C188.117 18.152 187.829 16.872 187.829 15.368C187.829 13.544 188.261 11.96 189.125 10.616C190.021 9.24 191.237 8.168 192.773 7.4C194.309 6.6 196.069 6.168 198.053 6.104C200.293 6.104 202.261 6.376 203.957 6.92C205.685 7.464 207.205 8.136 208.517 8.936L206.741 12.488ZM224.838 41.48C222.566 41.48 220.614 41.032 218.982 40.136C217.35 39.208 216.086 37.96 215.19 36.392C214.326 34.792 213.894 32.968 213.894 30.92C213.894 28.968 214.39 27.192 215.382 25.592C216.374 23.992 217.702 22.712 219.366 21.752C221.03 20.792 222.886 20.312 224.934 20.312C227.558 20.312 229.734 21.08 231.462 22.616C233.19 24.152 234.358 26.264 234.966 28.952L218.598 34.712L217.542 32.072L230.982 27.176L230.022 27.8C229.638 26.744 228.998 25.832 228.102 25.064C227.206 24.264 226.038 23.864 224.598 23.864C223.382 23.864 222.294 24.168 221.334 24.776C220.374 25.352 219.622 26.152 219.078 27.176C218.534 28.2 218.262 29.368 218.262 30.68C218.262 32.056 218.55 33.272 219.126 34.328C219.702 35.352 220.486 36.168 221.478 36.776C222.502 37.352 223.654 37.64 224.934 37.64C225.798 37.64 226.63 37.48 227.43 37.16C228.262 36.84 229.03 36.424 229.734 35.912L231.798 39.224C230.806 39.896 229.686 40.44 228.438 40.856C227.222 41.272 226.022 41.48 224.838 41.48ZM249.776 41.48C247.504 41.48 245.552 41.032 243.92 40.136C242.288 39.208 241.024 37.96 240.128 36.392C239.264 34.792 238.832 32.968 238.832 30.92C238.832 28.968 239.328 27.192 240.32 25.592C241.312 23.992 242.64 22.712 244.304 21.752C245.968 20.792 247.824 20.312 249.872 20.312C252.496 20.312 254.672 21.08 256.4 22.616C258.128 24.152 259.296 26.264 259.904 28.952L243.536 34.712L242.48 32.072L255.92 27.176L254.96 27.8C254.576 26.744 253.936 25.832 253.04 25.064C252.144 24.264 250.976 23.864 249.536 23.864C248.32 23.864 247.232 24.168 246.272 24.776C245.312 25.352 244.56 26.152 244.016 27.176C243.472 28.2 243.2 29.368 243.2 30.68C243.2 32.056 243.488 33.272 244.064 34.328C244.64 35.352 245.424 36.168 246.416 36.776C247.44 37.352 248.592 37.64 249.872 37.64C250.736 37.64 251.568 37.48 252.368 37.16C253.2 36.84 253.968 36.424 254.672 35.912L256.736 39.224C255.744 39.896 254.624 40.44 253.376 40.856C252.16 41.272 250.96 41.48 249.776 41.48Z" fill="#A0A0A0"/>
<path d="M37.7143 0H10.2857L24 48L37.7143 0Z" fill="#4DFF21"/>
<path d="M44.5714 36L48 18L33.1429 48L44.5714 36Z" fill="#1E9400"/>
<path d="M3.42857 36L14.8571 48L0 18L3.42857 36Z" fill="#1E9400"/>
<path d="M10.2857 0L0 18L14.8571 48H24L10.2857 0Z" fill="#2AD200"/>
<path d="M48 18L37.7143 0L24 48H33.1429L48 18Z" fill="#2AD200"/>
</g>
<defs>
<clipPath id="clip0_1_2">
<rect width="262" height="48" fill="white"/>
</clipPath>
</defs>
</svg>
