<?xml version="1.0" encoding="utf-8"?>
<!-- Generator: Adobe Illustrator 27.5.0, SVG Export Plug-In . SVG Version: 6.00 Build 0)  -->
<svg version="1.1" xmlns="http://www.w3.org/2000/svg" xmlns:xlink="http://www.w3.org/1999/xlink" x="0px" y="0px"
	 viewBox="0 0 500 500" style="enable-background:new 0 0 500 500;" xml:space="preserve">
<g id="BACKGROUND">
	<rect style="opacity:0;fill:#FFFFFF;" width="500" height="500"/>
</g>
<g id="OBJECTS">
	<g>
		<g>
			<path style="fill:#DFEAF7;" d="M439.74,190.535c0.359,13.458-13.099,26.463-28.086,35.278
				c-5.247,3.096-10.664,5.663-15.761,7.569c-16.402,6.134-30.2,5.663-40.393,5.342c-0.151-0.019-0.283-0.019-0.434-0.019
				c-0.321-0.019-0.661-0.019-0.982-0.038c-16.875-0.698-33.957-4.341-48.981-12.212c-0.396-0.208-0.793-0.415-1.189-0.642
				c-12.948-6.927-25.878-16.818-27.086-32.579c-0.604-7.758,1.85-15.648,6.512-21.857c5.04-6.701,12.401-10.457,19.045-15.308
				c4.681-3.416,6.757-8.362,8.947-13.496c1.529-3.567,3.19-7.097,5.096-10.495c1.057-1.85,2.152-3.643,3.36-5.398
				c8.437-12.288,22.405-21.291,37.203-23.405c15.421-2.189,30.144,5.002,40.242,16.573c6.097,6.965,10.287,15.572,12.099,24.651
				c1.491,7.418-0.038,16.704,5.738,22.518c6.701,6.739,16.327,4.738,21.782,13.137C439.57,184.325,439.684,188.685,439.74,190.535z
				"/>
		</g>
		<g>
			<g>
				<path style="fill:#002D53;" d="M385.439,163.617c13.699-11.736,17.771-33.166,8.401-46.956
					c-5.402-7.95-13.727-11.09-17.816-12.297c-1.7-2.475-6.009-7.979-13.306-9.984c-12.725-3.496-23.769,6.608-25.33,8.036
					c-14.622,13.378-20.125,46.051-0.162,62.013C350.196,174.799,371.336,175.7,385.439,163.617z"/>
			</g>
			<g>
				<g>
					<rect x="352.178" y="144.139" style="fill:#FFB3AE;" width="15.704" height="19.366"/>
				</g>
				<g>
					<path style="fill:#FF7A72;" d="M367.882,144.139v9.324c-8.286,0.604-13.024-0.472-15.704-2.114v-7.21H367.882z"/>
				</g>
				<g>
					<path style="fill:#FFB3AE;" d="M383.394,132.509c-1.497,3.987-5.14,6.307-8.136,5.181c-2.996-1.125-4.211-5.269-2.713-9.256
						c1.497-3.987,5.14-6.307,8.136-5.181C383.677,124.378,384.891,128.522,383.394,132.509z"/>
				</g>
				<g>
					<path style="fill:#FFB3AE;" d="M339.188,132.509c1.497,3.987,5.14,6.307,8.136,5.181c2.996-1.125,4.211-5.269,2.713-9.256
						c-1.497-3.987-5.14-6.307-8.136-5.181C338.905,124.378,337.691,128.522,339.188,132.509z"/>
				</g>
				<g>
					<path style="fill:#FFB3AE;" d="M375.903,128.816c2.526,6.948-5.446,20.82-15.645,20.82c-8.641,0-15.645-9.321-15.645-20.82
						c0-12.526,12.569-22.347,15.645-20.82c1.237,0.614,0.221,2.696,1.334,6.27C364.248,122.791,373.75,122.895,375.903,128.816z"/>
				</g>
			</g>
			<g>
				<path style="fill:#FFB042;" d="M404.113,217.942h-89.61v-17.455c0-24.745,20.06-44.805,44.805-44.805l0,0
					c24.745,0,44.805,20.06,44.805,44.805V217.942z"/>
			</g>
		</g>
		<g>
			<g>
				<g>
					<rect x="392.791" y="190.09" style="fill:#3D71F2;" width="24.675" height="28.092"/>
				</g>
				<g>
					<path style="fill:#3D71F2;" d="M425.322,204.232c0,2.446-1.995,4.427-4.441,4.427c-1.38,0-2.61-0.628-3.416-1.612v5.957
						c1.052,0.424,2.214,0.642,3.416,0.642c5.206,0,9.428-4.208,9.428-9.414c0-5.206-4.222-9.428-9.428-9.428
						c-1.202,0-2.364,0.219-3.416,0.642v5.957c0.806-0.984,2.036-1.612,3.416-1.612
						C423.328,199.791,425.322,201.772,425.322,204.232z"/>
				</g>
			</g>
			<g>
				<rect x="285.055" y="218.182" style="fill:#D18C7E;" width="150.405" height="7.63"/>
			</g>
			<g>
				<g>
					<path style="fill:#40C1B0;" d="M310.87,200.875c-0.517-13.327-0.331-30.132,4.087-31.082c0.152-0.033,0.68-0.138,1.211,0.135
						C319.744,171.771,315.615,186.776,310.87,200.875z"/>
				</g>
				<g>
					<path style="fill:#40C1B0;" d="M310.87,200.875c-6.517-11.425-9.659-13.501-11.295-12.993c-0.618,0.192-1.061,0.766-1.225,1.3
						C297.22,192.871,307.978,199.218,310.87,200.875z"/>
				</g>
				<g>
					<path style="fill:#40C1B0;" d="M310.87,200.875c0,0,6.08-17.499,10.283-16.459C325.356,185.456,310.87,200.875,310.87,200.875z
						"/>
				</g>
				<g>
					<polygon style="fill:#FF828A;" points="301.329,217.942 317.967,217.942 319.44,197.572 299.856,197.572 					"/>
				</g>
			</g>
			<g>
				<g>
					<path style="fill:#FFFFFF;" d="M393.521,214.407c0,2.076-1.699,3.775-3.775,3.775h-60.875c-2.076,0-3.775-1.699-3.775-3.775
						v-37.985c0-2.076,1.699-3.775,3.775-3.775h60.875c2.076,0,3.775,1.699,3.775,3.775V214.407z"/>
				</g>
				<g>
					<circle style="fill:#DFEAF7;" cx="359.308" cy="196.824" r="5.282"/>
				</g>
			</g>
			<g>
				<path style="fill:#BC7F72;" d="M411.654,225.813c-5.247,3.096-10.664,5.663-15.761,7.569c-16.402,6.134-30.2,5.663-40.393,5.342
					c-0.151-0.019-0.283-0.019-0.434-0.019c-0.321-0.019-0.661-0.019-0.982-0.038c-16.875-0.698-33.957-4.341-48.981-12.212
					c-0.396-0.208-0.793-0.415-1.189-0.642H411.654z"/>
			</g>
		</g>
	</g>
	<g>
		<g>
			<g>
				<path style="fill:#DFEAF7;" d="M437.544,385.558c-3.289,5.673-7.25,11.195-11.933,16.464l-0.017,0.017
					c-0.05,0.05-0.101,0.118-0.151,0.168c-9.298,10.439-22.809,16.128-36.789,15.944l-53.824-0.705c0,0-17.22-5.018-34.406-15.407
					c-0.017,0-0.017-0.017-0.034-0.017c-9.197-5.572-18.394-12.722-24.889-21.416c-5.539-7.401-9.113-15.978-9.08-25.712
					c0,0-2.786-34.523,55.72-36.47c26.736-3.122,22.187-34.876,79.502-33.717c1.964,0.034,3.877,0.168,5.706,0.403
					c3.122,0.386,6.092,1.057,8.895,1.947c14.903,4.834,25.326,16.599,30.361,31.653c0.957,2.853,1.729,5.824,2.299,8.895
					C452.162,345.362,448.755,366.291,437.544,385.558z"/>
			</g>
			<g>
				<g>
					<path style="fill:#F1F3F6;" d="M448.9,327.601h-41.543V285.11c3.123,0.394,6.085,1.065,8.886,1.955
						c14.913,4.83,25.331,16.591,30.365,31.65C447.572,321.56,448.331,324.537,448.9,327.601z"/>
				</g>
				<g>
					<path style="fill:#DFEAF7;" d="M446.609,318.715h-30.365v-31.65C431.156,291.895,441.575,303.656,446.609,318.715z"/>
				</g>
			</g>
		</g>
		<g>
			<g>
				<path style="fill:#002D53;" d="M428.811,380.612h-24.747c0.035-5.477,0.069-10.954,0.104-16.431
					c-0.508-0.286-0.937-0.616-1.3-0.975c-4.872-4.82,0.268-16.651,0.868-17.996c1.081,1.588,2.163,3.175,3.244,4.763h6.718
					c0.89-1.592,1.78-3.184,2.67-4.775c0.715,1.516,1.403,3.222,1.994,5.114c1.704,5.458,1.948,10.387,1.775,14.069
					C422.296,364.462,423.744,365.136,428.811,380.612z"/>
			</g>
			<g>
				<path style="fill:#FFFFFF;" d="M405.988,356.811c0,0.719-0.1,1.303-0.224,1.303c-0.124,0-0.224-0.583-0.224-1.303
					c0-0.719,0.101-1.303,0.224-1.303C405.888,355.508,405.988,356.092,405.988,356.811z"/>
			</g>
			<g>
				<path style="fill:#FFFFFF;" d="M412.593,356.811c0,0.719-0.1,1.303-0.224,1.303s-0.224-0.583-0.224-1.303
					c0-0.719,0.1-1.303,0.224-1.303S412.593,356.092,412.593,356.811z"/>
			</g>
		</g>
		<g>
			<g>
				<g>
					<polygon style="fill:#002D53;" points="336.956,380.613 321.764,380.613 327.736,356.578 342.928,356.578 					"/>
				</g>
				<g>
					<g>
						<path style="fill:#FFFFFF;" d="M373.296,367.048c0.17,1.596-1.005,2.902-2.61,2.902h-78.388c-1.605,0-3.057-1.306-3.227-2.902
							l-5.196-48.849c-0.17-1.596,1.005-2.902,2.61-2.902h78.388c1.605,0,3.057,1.306,3.227,2.902L373.296,367.048z"/>
					</g>
					<g>
						<path style="fill:#002D53;" d="M373.296,367.048c0.17,1.596-1.005,2.902-2.61,2.902h-78.388c-1.605,0-3.057-1.306-3.227-2.902
							l-5.196-48.849c-0.17-1.596,1.005-2.902,2.61-2.902h78.388c1.605,0,3.057,1.306,3.227,2.902L373.296,367.048z"/>
					</g>
				</g>
				<g>
					<g>
						<path style="fill:#004072;" d="M295.576,366.305c-1.605,0-3.057-1.306-3.227-2.902l-4.421-41.559
							c-0.17-1.596,1.005-2.902,2.61-2.902h71.058c1.605,0,3.057,1.306,3.227,2.902l4.42,41.559c0.17,1.596-1.005,2.902-2.61,2.902
							H295.576z"/>
					</g>
				</g>
				<g>
					<g>
						<polygon style="fill:#FF828A;" points="313.271,331.941 296.337,331.941 295.924,329.299 312.858,329.299 						"/>
					</g>
					<g>
						<polygon style="fill:#FFFFFF;" points="334.65,331.941 317.716,331.941 317.304,329.299 334.237,329.299 						"/>
					</g>
					<g>
						<polygon style="fill:#FFFFFF;" points="314.532,339.597 297.598,339.597 297.185,336.955 314.119,336.955 						"/>
					</g>
					<g>
						<polygon style="fill:#FFFFFF;" points="327.238,346.116 310.304,346.116 309.892,343.474 326.825,343.474 						"/>
					</g>
					<g>
						<polygon style="fill:#FFFFFF;" points="337.299,353.559 320.366,353.559 319.953,350.917 336.886,350.917 						"/>
					</g>
					<g>
						<polygon style="fill:#FF828A;" points="347.603,353.559 339.136,353.559 338.723,350.917 347.19,350.917 						"/>
					</g>
					<g>
						<polygon style="fill:#FF828A;" points="345.972,346.116 329.039,346.116 328.626,343.474 345.56,343.474 						"/>
					</g>
				</g>
			</g>
			<g>
				<g>
					<path style="fill:#BC7F72;" d="M425.611,402.023l-0.017,0.017c-0.05,0.05-0.101,0.118-0.151,0.168
						c-9.298,10.439-22.809,16.128-36.789,15.944l-53.824-0.705c0,0-17.22-5.018-34.406-15.407c-0.017,0-0.017-0.017-0.034-0.017
						H425.611z"/>
				</g>
				<g>
					<path style="fill:#D18C7E;" d="M437.546,385.557c-3.292,5.674-7.265,11.214-11.955,16.474H300.433
						c-9.221-5.576-18.43-12.708-24.93-21.419h158.508L437.546,385.557z"/>
				</g>
			</g>
		</g>
		<g>
			<g>
				<g>
					<path style="fill:#FFB3AE;" d="M384.839,346.107c-3.653,10.999-12.92,17.822-20.699,15.239
						c-7.779-2.583-11.124-13.594-7.471-24.594c3.653-10.999,12.92-17.822,20.699-15.239
						C385.146,324.096,388.491,335.107,384.839,346.107z"/>
				</g>
				<g>
					<rect x="369.851" y="348.731" style="fill:#FFB3AE;" width="15.733" height="18.765"/>
				</g>
				<g>
					<path style="fill:#002D53;" d="M355.487,341.691c0,0-12.989-7.394-2.668-20.241c2.668-3.897,2.668,4.042,2.668,4.042
						s8.861-25.693,23.882-9.31c0,0,14.197,2.404,17.352,11.983c1.021,3.099,0.464,5.741-0.093,8.586
						c-0.196,1-3.812,18.243-15.953,20.369c-1.699,0.298-5.66,0.666-10.826-2.057C365.061,350.605,360.274,346.148,355.487,341.691z
						"/>
				</g>
				<g>
					<path style="fill:#FFB3AE;" d="M368.314,348.15c0.309,3.432-0.598,6.318-2.024,6.447c-1.427,0.129-2.833-2.549-3.142-5.981
						c-0.309-3.432,0.598-6.318,2.024-6.447C366.599,342.04,368.005,344.718,368.314,348.15z"/>
				</g>
			</g>
			<g>
				<g>
					<path style="fill:#3D71F2;" d="M418.853,415.135c0,0-3.086,1.761-11.42,3.256c-9.537,1.713-25.938,3.074-52.435,1.045
						c-6.16-0.462-12.866-1.118-20.155-1.992c0,0,2.09-9.61,7.083-21.006c6.816-15.575,19.074-34.491,38.828-36.739
						c19.511-2.223,29.158,16.122,33.847,32.304C418.136,404.189,418.853,415.135,418.853,415.135z"/>
				</g>
				<g>
					<path style="fill:#FFB3AE;" d="M418.853,415.135c0,0-3.086,1.761-11.42,3.256l-2.539-22.852l9.707-3.535
						C418.136,404.189,418.853,415.135,418.853,415.135z"/>
				</g>
				<g>
					<path style="fill:#FFB3AE;" d="M358.116,402.031l-1.045,5.868c-1.191,6.597-7.265,11.165-13.935,10.473
						c-2.673-0.279-5.443-0.583-8.298-0.923c-9.379-1.045-27.432-27.469-27.432-27.469l-4.932,0.96
						c-1.604,5.686-2.806,7.132-3.681,7.083c-1.847-0.097-2.782-7.01-2.163-11.116c0.122-0.777,0.34-1.762,1.118-2.418
						c0.668-0.559,1.567-0.729,2.369-0.741c1.033,0.097,1.543,0.158,1.762,0.17c-0.267-0.049-0.96-0.182-1.762-0.17
						c-0.121-0.012-0.255-0.024-0.401-0.036c0.547-4.811,3.572-8.808,7.739-10.205c3.863-1.3,7.277,0.109,8.237,0.535
						c0,0,1.191-0.753,4.058-0.486c2.867,0.279,4.386,7.253,4.386,7.253l17.786,15.636
						C345.238,398.799,350.997,401.958,358.116,402.031z"/>
				</g>
				<g>
					<path style="fill:#FF7A72;" d="M301.878,384.756c-0.051,0-0.102-0.005-0.152-0.013c-0.287-0.054-0.913-0.159-1.596-0.157
						c-0.443,0.056-0.844-0.364-0.851-0.828c-0.007-0.462,0.364-0.844,0.828-0.851c0.852,0.002,1.588,0.121,1.898,0.18
						c0.456,0.084,0.77,0.523,0.687,0.978C302.615,384.471,302.273,384.756,301.878,384.756z"/>
				</g>
				<g>
					<path style="fill:#FF7A72;" d="M337.516,405.484c-0.134,0-0.271-0.033-0.397-0.1c-0.408-0.22-0.562-0.728-0.342-1.136
						l4.406-8.203c0.22-0.408,0.729-0.56,1.136-0.342c0.408,0.22,0.562,0.728,0.342,1.136l-4.406,8.203
						C338.104,405.323,337.814,405.484,337.516,405.484z"/>
				</g>
				<g>
					<path style="fill:#002D53;" d="M404.895,396.168c-0.292,0-0.554-0.203-0.616-0.5l-3.168-15.056
						c-0.07-0.339,0.146-0.674,0.487-0.746c0.352-0.062,0.674,0.148,0.746,0.487l3.168,15.056c0.07,0.339-0.146,0.674-0.487,0.746
						C404.98,396.163,404.937,396.168,404.895,396.168z"/>
				</g>
				<g>
					<path style="fill:#002D53;" d="M358.116,402.66c-0.102,0-0.203-0.025-0.298-0.075c-0.306-0.165-0.421-0.547-0.256-0.852
						l5.773-10.709c0.166-0.308,0.549-0.416,0.852-0.256c0.306,0.165,0.421,0.547,0.256,0.852l-5.773,10.709
						C358.557,402.54,358.339,402.66,358.116,402.66z"/>
				</g>
			</g>
		</g>
	</g>
	<g>
		<g>
			<path style="fill:#DFEAF7;" d="M240.627,380.612c-6.974,12.392-17.823,21.066-30.688,27.019
				c-0.061,0.024-0.122,0.061-0.182,0.085c-17.191,7.897-37.953,10.958-57.975,11.542c-19.317,0.571-37.929-1.178-51.974-3.134
				c-14.579-2.029-24.237-4.276-24.602-4.386c-1.069-0.328-2.102-0.729-2.102-0.729c-0.765-0.279-1.531-0.607-2.272-0.948
				c-0.024,0-0.037-0.012-0.061-0.024l-0.219-0.109c-5.892-2.733-10.8-6.937-14.372-12.064c-4.313-6.22-6.621-13.777-6.22-21.662
				c0.425-8.237,2.32-17.337,7.059-26.169c9.914-18.503,32.486-36.216,55.424-37.82c8.723-0.608,20.945,0.449,33.313-7.241
				c2.841-1.766,3.782-2.392,6.425-4.067c3.782-2.397,23.168-14.685,46.298-12.097c5.674,0.635,24.598,3.623,38.128,19.469
				C255.082,329.916,251.28,361.682,240.627,380.612z"/>
		</g>
		<g>
			<g>
				<path style="fill:#3D71F2;" d="M215.37,396.71c-2.005,4.459-3.924,8.188-5.431,10.922c-0.061,0.024-0.122,0.061-0.182,0.085
					c-17.191,7.897-37.953,10.958-57.975,11.542c-6.573,0.049-12.647-0.243-18.114-0.729c-8.893-5.503-12.89-13.898-10.885-19.73
					c0.535-1.555,1.507-2.94,2.94-4.021c13.291-10.108,34.685-10.375,39.144-21.929c2.964-7.702,10.412-29.182,15.04-42.631
					c1.434-4.155,11.955-15.174,24.505-14.591c10.436,0.474,17.482,9.185,18.175,10.059
					C238.222,345.599,221.201,383.662,215.37,396.71z"/>
			</g>
			<g>
				<path style="fill:#002D53;" d="M195.842,402.813c-0.026,0-0.054-0.002-0.082-0.005l-18.883-2.496
					c-0.346-0.046-0.587-0.362-0.543-0.706c0.046-0.342,0.341-0.577,0.706-0.543l18.883,2.496c0.346,0.046,0.587,0.362,0.542,0.706
					C196.424,402.582,196.153,402.813,195.842,402.813z"/>
			</g>
		</g>
		<g>
			<g>
				<path style="fill:#40C1B0;" d="M94.717,363.06c-0.646-16.649-0.413-37.643,5.105-38.83c0.19-0.041,0.849-0.173,1.513,0.169
					C105.802,326.701,100.644,345.447,94.717,363.06z"/>
			</g>
			<g>
				<path style="fill:#40C1B0;" d="M94.717,363.06c-8.141-14.273-12.067-16.866-14.11-16.232c-0.772,0.24-1.326,0.956-1.53,1.624
					C77.663,353.061,91.104,360.99,94.717,363.06z"/>
			</g>
			<g>
				<path style="fill:#40C1B0;" d="M94.717,363.06c0,0,7.595-21.861,12.846-20.562C112.813,343.797,94.717,363.06,94.717,363.06z"/>
			</g>
			<g>
				<polygon style="fill:#FF828A;" points="104.694,386.55 83.908,386.55 82.068,361.102 106.534,361.102 				"/>
			</g>
		</g>
		<g>
			<g>
				<path style="fill:#002D53;" d="M151.786,313.15c0,0-8.877-1.732-6.928-10.718c1.949-8.985,7.795-8.877,7.795-8.877
					s9.635-14.831,27.606-5.846c17.971,8.985,4.763,21.76,14.831,30.312c10.068,8.552,24.949,47.917-7.391,44.203L151.786,313.15z"
					/>
			</g>
			<g>
				<path style="fill:#004070;" d="M176.315,403.01c-0.899,1.507-4.106,6.779-9.586,10.096c-16.207,9.828-40.869-4.313-48.936-8.942
					c-7.387-4.24-12.89-8.747-16.45-11.991l-26.132,19.56c-1.494-0.462-2.952-1.02-4.374-1.677c-0.024,0-0.036-0.012-0.061-0.024
					l-0.219-0.109c-5.892-2.734-10.8-6.937-14.372-12.064c7.702-8.626,26.801-28.83,37.468-29.389
					c13.57-0.717,48.608,17.859,48.608,17.859l38.488-1.3C180.883,388.164,180.773,395.503,176.315,403.01z"/>
			</g>
			<g>
				<g>
					<path style="fill:#FFB042;" d="M171.056,334.369c0,0-15.445,9.382-14.723,12.991c0.722,3.609,0.722,3.609,0.722,3.609
						l-14.795,35.364c4.906,1.668,10.926,3.298,17.899,4.33c7.761,1.149,14.639,1.251,20.221,0.962
						c2.202-7.017,15.895-51.545,4.029-58.122c-0.973-0.539-2.17-0.853-3.663-0.812L171.056,334.369z"/>
				</g>
				<g>
					<path style="fill:#FFFFFF;" d="M126.693,364.671l-11.586-4.735c-0.759-0.31-1.278-1.255-1.278-2.326V327.9
						c0-1.63,1.166-2.798,2.322-2.326l11.586,4.735c0.759,0.31,1.278,1.255,1.278,2.326v29.71
						C129.015,363.975,127.849,365.143,126.693,364.671z"/>
				</g>
				<g>
					<path style="fill:#FFB3AE;" d="M182.426,355.86c-6.172,7.921-12.441,13.328-17.555,16.984c-1.494,1.069-2.891,1.98-4.155,2.77
						c-8.359,5.212-11.688,5.09-12.987,4.957c-11.833-1.239-17.337-20.921-17.628-21.99l-7.982-0.535c0,0-5.042-5.965-4.021-7.945
						c1.033-1.98,3.56-2.782,3.56-2.782s-5.564-2.345-2.782-4.179c2.782-1.847,10.399,1.519,10.399,1.519s-0.802-4.665,3.463-2.491
						c4.252,2.163,6.342,14.652,6.342,14.652c3.839,7.933,10.484,7.265,17.106,3.56c10.072-5.613,20.07-18.211,20.07-18.211
						L182.426,355.86z"/>
				</g>
				<g>
					<path style="fill:#FFB042;" d="M184.766,357.517c-2.224,2.392-4.925,4.989-8.155,7.578c-4.19,3.359-8.234,5.874-11.74,7.75
						c-2.442-3.475-6.087-8.674-8.687-12.465c5.991-3.924,9.79-7.99,12.199-11.091c2.926-3.767,4.573-7.104,8.519-8.24
						c2.347-0.676,5.555-0.586,7.72,1.167C187.992,344.946,188.565,351.496,184.766,357.517z"/>
				</g>
				<g>
					<path style="fill:#FFB3AE;" d="M148.646,334.87c0,0-0.982-5.12-6.716-0.97c-5.734,4.15-8.152,5.927-7.105,7.691
						c1.046,1.764,7.434-2.061,7.434-2.061"/>
				</g>
				<g>
					<path style="fill:#FFB3AE;" d="M142.252,347.376v0.017c-1.192,0.403-2.014,0.084-2.568-0.57
						c-1.427-1.662-1.292-5.388-1.292-5.388c0.711-0.319,1.421-0.638,2.132-0.956C141.099,342.778,141.676,345.077,142.252,347.376z
						"/>
				</g>
				<g>
					<path style="fill:#FFB3AE;" d="M143.611,347.762c-0.537,0.151-0.99,0-1.359-0.369v-0.017c-0.252-0.235-0.47-0.57-0.638-0.957
						c-0.017-0.017-0.017-0.034-0.017-0.034c-0.973-2.148-1.074-5.908-1.074-5.908c0.963-1.271,1.925-2.543,2.888-3.814
						c0.816,1.59,1.633,3.18,2.449,4.77C145.86,341.435,146.481,346.906,143.611,347.762z"/>
				</g>
				<g>
					<path style="fill:#FFB3AE;" d="M150.862,365.754l-6.713-1.292l2.736-1.46c-6.428-0.285-7.2-16.179-7.2-16.179
						c0.554,0.654,1.376,0.973,2.568,0.57c0.369,0.369,0.822,0.52,1.359,0.369c2.87-0.856,2.249-6.327,2.249-6.327l-3.894-0.705
						c0.05-0.403,0.201-0.839,0.436-1.309l6.193-4.515c0.587-0.067,1.141-0.034,1.628,0.084h0.067
						c2.182,0.504,3.642,2.585,3.625,4.817v0.352c-0.067,9.214-0.336,13.41,1.662,14.333c0.537,0.235,0.789,0.05,1.04,0.336
						C158.33,356.708,150.862,365.754,150.862,365.754z"/>
				</g>
				<g>
					<path style="fill:#FF7A72;" d="M149.971,348.115c-0.062,0-0.128-0.007-0.192-0.023c-0.71-0.167-2.463-0.742-3.414-2.477
						c-1.049-1.934-0.639-4.41,1.014-6.166c0.318-0.338,0.849-0.354,1.187-0.036c0.338,0.318,0.354,0.851,0.036,1.187
						c-1.139,1.208-1.454,2.94-0.764,4.212c0.624,1.139,1.834,1.531,2.324,1.647c0.452,0.107,0.731,0.557,0.625,1.008
						C150.697,347.854,150.353,348.115,149.971,348.115z"/>
				</g>
				<g>
					<path style="fill:#FF7A72;" d="M143.253,343.15c-0.385,0-0.734-0.069-1.051-0.206c-0.397-0.172-1.298-0.746-1.067-2.334
						c0.067-0.461,0.5-0.769,0.952-0.71c0.459,0.067,0.775,0.493,0.71,0.952c-0.034,0.234-0.026,0.508,0.074,0.551
						c0.22,0.095,0.915,0.218,2.583-0.702c1.105-0.605,2.003-1.324,2.011-1.331c0.354-0.284,0.888-0.251,1.182,0.092
						c0.293,0.346,0.279,0.846-0.057,1.151l-0.564-0.621l0.557,0.628c-0.107,0.092-1.088,0.878-2.319,1.552
						C145.081,342.826,144.086,343.15,143.253,343.15z"/>
				</g>
				<g>
					<path style="fill:#FF7A72;" d="M142.402,340.261c-0.123,0-0.246-0.026-0.364-0.082c-0.418-0.202-0.593-0.703-0.393-1.121
						c0.833-1.731,2.84-4.025,5.764-4.794c0.384-0.098,0.739-0.154,1.096-0.192c0.452-0.043,0.875,0.283,0.924,0.744
						c0.049,0.461-0.283,0.875-0.744,0.924c-0.282,0.031-0.562,0.074-0.857,0.147c-2.211,0.582-3.94,2.377-4.669,3.898
						C143.014,340.085,142.714,340.261,142.402,340.261z"/>
				</g>
				<g>
					<path style="fill:#FF7A72;" d="M156.185,361.218c-0.287,0-0.566-0.146-0.723-0.41c-0.236-0.398-0.107-0.913,0.292-1.151
						c0.094-0.056,9.419-5.674,14.466-14.249c0.234-0.402,0.751-0.531,1.149-0.297c0.398,0.234,0.533,0.749,0.297,1.149
						c-5.268,8.954-14.656,14.603-15.052,14.839C156.478,361.181,156.331,361.218,156.185,361.218z"/>
				</g>
			</g>
			<g>
				<g>
					<path style="fill:#FFB3AE;" d="M180.753,332.691c-1.544,1.544-12.067,12.034-16.297,11.966c-0.235,0-0.705-0.034-0.923-0.336
						c-1.276-1.745,7.519-9.953,7.519-9.953c-0.151-0.722-0.319-1.426-0.47-2.148l-0.638-2.887
						c-0.554,0.554-1.393,1.326-2.518,2.131c-1.426,1.041-4.716,3.256-7.418,3.34c-5.052,0.134-8.442-10.036-8.442-10.036
						c-0.806-0.268-1.611-0.52-2.434-0.789c0.604-1.779,1.192-3.558,1.779-5.337c-2.014-5.136,0-15.457,0-15.457l0.873-3.29
						c1.007,1.628,4.38,6.646,11.11,9.214c6.092,2.316,11.413,1.259,13.36,0.789c0.655,3.357,1.326,6.697,1.98,10.053v0.017
						c0.47,2.383,0.94,4.783,1.427,7.166C180.014,328.982,180.383,330.845,180.753,332.691z"/>
				</g>
				<g>
					<path style="fill:#FFB3AE;" d="M180.397,316.309c-1.08,3.283-3.495,5.438-5.394,4.813c-1.899-0.625-2.564-3.793-1.484-7.076
						c1.08-3.283,3.495-5.438,5.394-4.813C180.813,309.858,181.477,313.026,180.397,316.309z"/>
				</g>
				<g>
					<path style="fill:#FF7A72;" d="M179.662,327.136l-9.08,5.085l-0.638-2.887l8.291-9.365
						C178.705,322.353,179.175,324.753,179.662,327.136z"/>
				</g>
			</g>
		</g>
		<g>
			<path style="fill:#3D71F2;" d="M211.263,404.704l-1.507,3.013c-17.191,7.897-37.953,10.958-57.975,11.542
				c-19.317,0.571-37.929-1.178-51.974-3.134c1.057-4.07,5.37-13.765,22.974-17.324c2.308-0.462,4.835-0.826,7.617-1.057
				C160.395,395.276,211.263,404.704,211.263,404.704z"/>
		</g>
	</g>
	<g>
		<g>
			<path style="fill:#DFEAF7;" d="M237.568,213.198c-2.699,5.568-7.267,10.551-13.231,14.817
				c-29.483,21.159-92.979,25.274-131.069,0c-6.285-4.153-11.873-9.117-16.497-14.93c-12.344-15.497-19.649-39.204-17.913-61.59
				c0.717-9.192,1.793-20.819,10.23-30.918c17.025-20.347,48.434-15.742,50.019-15.478c21.99,3.567,22.367,16.686,54.172,36.845
				c35.372,22.442,55.512,19.271,64.195,39.317C241.456,190.434,242.438,203.118,237.568,213.198z"/>
		</g>
		<g>
			<g>
				<g>
					<path style="fill:#3D71F2;" d="M124.245,220.384l7.378-33.112c1.85-8.304,7.412-15.298,15.087-18.97l21.772-10.417
						l22.338,9.291c8.981,3.736,15.543,11.66,17.539,21.18l6.714,32.028H124.245z"/>
				</g>
				<g>
					<path style="fill:#FFB0B3;" d="M154.684,209.796c0,0,5.823-7.634,8.624-7.147c2.8,0.487,7.975,9.618,7.975,9.618h23.092
						l0.649-5.844c0,0,14.773,2.679,20.048,13.961h-57.792L154.684,209.796z"/>
				</g>
				<g>
					<path style="fill:#002D53;" d="M195.024,207.131c-0.359,0-0.667-0.271-0.704-0.636l-2.005-19.712
						c-0.039-0.389,0.243-0.737,0.632-0.776c0.393-0.031,0.737,0.243,0.776,0.632l2.005,19.712c0.039,0.389-0.243,0.737-0.632,0.776
						C195.071,207.129,195.047,207.131,195.024,207.131z"/>
				</g>
			</g>
			<g>
				<g>
					<path style="fill:#FFB0B3;" d="M158.133,154.556v15.341c0,0-1.096,9.497,4.992,8.644c6.088-0.852,12.546-17.667,12.546-17.667
						l-1.005-14.922L158.133,154.556z"/>
				</g>
				<g>
					<polygon style="fill:#FF7A72;" points="175.45,157.497 158.141,168.595 158.141,154.552 174.657,145.945 					"/>
				</g>
				<g>
					
						<ellipse transform="matrix(0.361 -0.9326 0.9326 0.361 -26.0302 238.1152)" style="fill:#FFB3AE;" cx="160.746" cy="138.053" rx="22.768" ry="15.917"/>
				</g>
				<g>
					<path style="fill:#002D53;" d="M177.606,135.248c0,0-8.475-4.637-13.101-15.432c0,0-21.672,16.964-26.786,6.575
						c-5.114-10.389,7.549-18.588,9.01-11.526c0,0,11.674-18.912,30.877-6.331S177.606,135.248,177.606,135.248z"/>
				</g>
				<g>
					<path style="fill:#FFB3AE;" d="M180.747,140.343c-1.234,3.439-3.864,5.643-5.873,4.921s-2.639-4.094-1.405-7.533
						c1.234-3.439,3.864-5.643,5.874-4.922S181.981,136.904,180.747,140.343z"/>
				</g>
			</g>
		</g>
		<g>
			<g>
				<g>
					<rect x="84.838" y="192.298" style="fill:#6190E5;" width="20.7" height="28.092"/>
				</g>
				<g>
					<path style="fill:#6190E5;" d="M76.981,206.439c0,2.446,1.995,4.427,4.441,4.427c1.38,0,2.61-0.629,3.416-1.612v5.957
						c-1.052,0.424-2.213,0.642-3.416,0.642c-5.206,0-9.428-4.208-9.428-9.414c0-5.206,4.222-9.428,9.428-9.428
						c1.202,0,2.364,0.219,3.416,0.642v5.957c-0.806-0.984-2.036-1.612-3.416-1.612C78.976,201.999,76.981,203.98,76.981,206.439z"
						/>
				</g>
			</g>
			<g>
				<path style="fill:#F1F3F6;" d="M90.641,171.3c2.546-3.888,6.251-7.031,8.119-11.287c2.568-5.85,1.217-12.739,3.177-18.82
					c2.844-8.823,11.836-14.021,17.107-21.647c5.738-8.302,6.632-19.714,2.256-28.808c-1.997-4.151-5.136-7.907-9.329-9.817
					c-4.971-2.265-11.029-1.628-15.707,1.193c-4.678,2.821-7.985,7.646-9.457,12.906c-3.629,12.97,3.389,26.953,0.603,40.13
					c-1.656,7.835-6.649,14.65-8.334,22.479c-1.465,6.81-0.086,14.095,3.432,20.072c1.03,1.751,3.9,7.282,5.432,3.477
					c0.581-1.442,0.223-3.215,0.537-4.734C88.853,174.618,89.621,172.856,90.641,171.3z"/>
			</g>
		</g>
		<g>
			<g>
				<rect x="73.353" y="220.384" style="fill:#D18C7E;" width="161.883" height="7.63"/>
			</g>
			<g>
				<path style="fill:#BC7F72;" d="M224.336,228.015c-29.483,21.159-92.979,25.274-131.069,0H224.336z"/>
			</g>
		</g>
		<g>
			<g>
				<path style="fill:#FFFFFF;" d="M160.426,216.717c0.495,2.016-0.799,3.666-2.876,3.666h-47.969c-2.076,0-4.18-1.65-4.674-3.666
					l-8.753-35.686c-0.495-2.017,0.799-3.666,2.876-3.666h47.969c2.076,0,4.18,1.65,4.674,3.666L160.426,216.717z"/>
			</g>
			<g>
				<path style="fill:#DFEAF7;" d="M133.007,199.379c0.535,2.917-1.397,5.283-4.315,5.283c-2.918,0-5.716-2.365-6.25-5.283
					c-0.535-2.917,1.397-5.282,4.315-5.282C129.673,194.096,132.472,196.461,133.007,199.379z"/>
			</g>
		</g>
	</g>
</g>
</svg>
