<svg width="302" height="293" viewBox="0 0 302 293" fill="none" xmlns="http://www.w3.org/2000/svg">
<path d="M152.008 0.0155418C116.03 -0.502443 81.0665 11.9425 53.5073 35.0762C25.948 58.2099 7.63287 90.4876 1.90872 126.011C-3.81544 161.534 3.43361 197.932 22.3312 228.551C41.2287 259.171 70.513 281.968 104.833 292.778C111.77 294.166 117.32 286.534 117.32 280.291V260.172C75.6951 269.191 62.5138 240.053 62.5138 240.053C59.8073 231.271 54.4821 223.525 47.2513 217.853C33.3763 208.141 47.9451 208.834 47.9451 208.834C52.5782 209.204 57.0609 210.651 61.0357 213.06C65.0105 215.469 68.3675 218.773 70.8388 222.709C82.6326 242.828 108.995 240.747 117.32 237.278C116.591 230.38 117.792 223.415 120.789 217.159C73.6138 208.834 47.9451 181.084 47.9451 143.622C47.4488 124.084 54.678 105.138 68.0638 90.8968C64.3349 84.008 62.5579 76.2318 62.9247 68.4071C63.2915 60.5825 65.7881 53.0065 70.1451 46.4968C78.5238 46.6616 86.7813 48.5303 94.4145 51.9891C102.048 55.4479 108.897 60.4245 114.545 66.6155C126.592 62.5049 139.287 60.6242 152.008 61.0655C164.674 60.6729 177.322 62.3125 189.47 65.9218C195.203 59.8882 202.084 55.0616 209.709 51.7257C217.333 48.3899 225.548 46.612 233.87 46.4968C238.132 53.0261 240.627 60.5489 241.114 68.3308C241.6 76.1126 240.061 83.8876 236.645 90.8968C249.779 105.248 256.754 124.18 256.07 143.622C256.07 181.084 230.401 208.834 183.226 217.159C186.223 223.415 187.424 230.38 186.695 237.278V280.291C186.692 281.99 187.037 283.673 187.707 285.235C188.378 286.797 189.36 288.206 190.594 289.375C191.828 290.544 193.288 291.449 194.884 292.034C196.48 292.619 198.179 292.872 199.876 292.778C233.378 281.154 261.702 258.076 279.854 227.613C298.006 197.15 304.822 161.256 299.1 126.26C293.377 91.2629 275.485 59.4095 248.575 36.3141C221.666 13.2187 187.467 0.363884 152.008 0.0155418Z" fill="white"/>
</svg>
