<svg width="48" height="48" viewBox="0 0 48 48" fill="none" xmlns="http://www.w3.org/2000/svg">
<path d="M24 30.5455C25.8182 30.5455 27.3636 29.9091 28.6364 28.6364C29.9091 27.3636 30.5455 25.8182 30.5455 24C30.5455 22.1818 29.9091 20.6364 28.6364 19.3636C27.3636 18.0909 25.8182 17.4545 24 17.4545C22.1818 17.4545 20.6364 18.0909 19.3636 19.3636C18.0909 20.6364 17.4545 22.1818 17.4545 24C17.4545 25.8182 18.0909 27.3636 19.3636 28.6364C20.6364 29.9091 22.1818 30.5455 24 30.5455ZM24 34.9091C20.9818 34.9091 18.4091 33.8455 16.2818 31.7182C14.1545 29.5909 13.0909 27.0182 13.0909 24C13.0909 20.9818 14.1545 18.4091 16.2818 16.2818C18.4091 14.1545 20.9818 13.0909 24 13.0909C27.0182 13.0909 29.5909 14.1545 31.7182 16.2818C33.8455 18.4091 34.9091 20.9818 34.9091 24C34.9091 27.0182 33.8455 29.5909 31.7182 31.7182C29.5909 33.8455 27.0182 34.9091 24 34.9091ZM8.72727 26.1818H0V21.8182H8.72727V26.1818ZM48 26.1818H39.2727V21.8182H48V26.1818ZM21.8182 8.72727V0H26.1818V8.72727H21.8182ZM21.8182 48V39.2727H26.1818V48H21.8182ZM11.7818 14.7273L6.27273 9.43636L9.38182 6.21818L14.6182 11.6727L11.7818 14.7273ZM38.6182 41.7818L33.3273 36.2727L36.2182 33.2727L41.7273 38.5636L38.6182 41.7818ZM33.2727 11.7818L38.5636 6.27273L41.7818 9.38182L36.3273 14.6182L33.2727 11.7818ZM6.21818 38.6182L11.7273 33.3273L14.7273 36.2182L9.43636 41.7273L6.21818 38.6182Z" fill="#EAE9FC"/>
</svg>
