<svg width="240" height="241" viewBox="0 0 240 241" fill="none" xmlns="http://www.w3.org/2000/svg">
<path d="M133.514 156.08C133.514 133.575 143.873 120.167 163.702 120.167C181.926 120.167 190.679 133.04 190.679 156.08C190.679 179.14 190.679 240.111 190.679 240.111H240C240 240.111 240 181.634 240 138.755C240 95.8757 215.698 75.1479 181.754 75.1479C147.8 75.1479 133.514 101.6 133.514 101.6V80.0346H85.981V240.111H133.514C133.514 240.111 133.514 180.745 133.514 156.08Z" fill="white"/>
<path d="M54.3098 80.0359H4.75732V240.112H54.3098V80.0359Z" fill="white"/>
<path d="M29.2995 59.0733C45.4838 59.0733 58.5989 45.8372 58.5989 29.5317C58.5989 13.2262 45.4838 0 29.2995 0C13.1152 0 0 13.2262 0 29.5317C0 45.8372 13.1051 59.0733 29.2995 59.0733Z" fill="white"/>
</svg>
